
<svg xmlns="http://www.w3.org/2000/svg" version="1.1" xmlns:xlink="http://www.w3.org/1999/xlink" preserveAspectRatio="none" x="0px" y="0px" width="173px" height="200px" viewBox="0 0 173 200">
<defs>
<linearGradient id="Gradient_1" gradientUnits="userSpaceOnUse" x1="381.5" y1="189.34999999999997" x2="834.4000000000001" y2="459.45" spreadMethod="pad">
<stop  offset="0%" stop-color="#1707FF"/>

<stop  offset="100%" stop-color="#FF308C"/>
</linearGradient>

<g id="Layer0_0_FILL">
<path fill="url(#Gradient_1)" stroke="none" d="
M 407.3 474.75
Q 417.246484375 464.810546875 417.25 450.75 417.2458984375 436.6388671875 407.3 426.7 397.3611328125 416.7541015625 383.25 416.75 369.1388671875 416.7541015625 359.2 426.7 349.2541015625 436.6388671875 349.25 450.75 349.253515625 464.810546875 359.2 474.75 369.1384765625 484.7470703125 383.25 484.75 397.3615234375 484.7470703125 407.3 474.75
M 578 553.55
Q 568.0541015625 563.4888671875 568.05 577.6 568.053515625 591.660546875 578 601.6 587.9384765625 611.5970703125 602.05 611.6 616.1615234375 611.5970703125 626.1 601.6 636.046484375 591.660546875 636.05 577.6 636.0458984375 563.4888671875 626.1 553.55 616.1611328125 543.6041015625 602.05 543.6 587.9388671875 543.6041015625 578 553.55
M 561.6 565.4
Q 562.0072265625 565.3126953125 562.2 564.95
L 572.35 547.45
Q 572.5830078125 547.0947265625 572.45 546.7 572.3638671875 546.2921875 572 546.05
L 424.9 461.05
Q 424.544921875 460.8681640625 424.15 460.95 423.7427734375 461.0873046875 423.5 461.45
L 413.35 478.95
Q 413.166796875 479.305078125 413.25 479.7 413.3861328125 480.1076171875 413.75 480.3
L 560.85 565.3
Q 561.205078125 565.5318359375 561.6 565.4
M 626.5 345.25
Q 636.4458984375 335.3111328125 636.45 321.2 636.4458984375 307.0888671875 626.5 297.15 616.5611328125 287.2041015625 602.45 287.2 588.3388671875 287.2041015625 578.4 297.15 568.4541015625 307.0888671875 568.45 321.2 568.4541015625 335.3111328125 578.4 345.25 588.3388671875 355.1958984375 602.45 355.2 616.5611328125 355.1958984375 626.5 345.25
M 392.8 233.6
Q 392.5107421875 233.303515625 392.1 233.3
L 373.45 233.3
Q 373.0392578125 233.303515625 372.75 233.6 372.453515625 233.8892578125 372.45 234.3
L 372.45 403.75
Q 372.453515625 404.1607421875 372.75 404.45 373.0392578125 404.746484375 373.45 404.75
L 392.1 404.75
Q 392.5107421875 404.746484375 392.8 404.45 393.096484375 404.1607421875 393.1 403.75
L 393.1 234.3
Q 393.096484375 233.8892578125 392.8 233.6
M 414.1 226.25
Q 413.7076171875 226.1677734375 413.35 226.35
L 397.15 235.7
Q 396.78828125 235.941796875 396.65 236.35 396.5671875 236.7431640625 396.75 237.1
L 478.7 379.05 412.75 417.15
Q 412.38828125 417.391796875 412.25 417.8 412.1673828125 418.1931640625 412.35 418.55
L 422.3 435.8
Q 422.5412109375 436.1623046875 422.95 436.25 423.343359375 436.38359375 423.7 436.15
L 489.65 398.05 571.95 540.55
Q 572.1919921875 540.911328125 572.6 541 572.99375 541.1322265625 573.35 540.9
L 589.55 531.6
Q 589.912890625 531.40859375 590 531 590.13359375 530.6064453125 589.9 530.25
L 507.65 387.7 572.1 350.55
Q 572.4625 350.359765625 572.55 349.95 572.68359375 349.5544921875 572.45 349.2
L 562.45 331.95
Q 562.25703125 331.587109375 561.85 331.45 561.4548828125 331.368359375 561.1 331.55
L 496.7 368.7 414.7 226.75
Q 414.505859375 226.38671875 414.1 226.25
M 359.2 167.3
Q 349.2541015625 177.2388671875 349.25 191.35 349.2541015625 205.4611328125 359.2 215.4 369.1388671875 225.3458984375 383.25 225.35 397.3611328125 225.3458984375 407.3 215.4 417.2458984375 205.4611328125 417.25 191.35 417.2458984375 177.2388671875 407.3 167.3 397.3611328125 157.3541015625 383.25 157.35 369.1388671875 157.3541015625 359.2 167.3
M 572.35 92.5
Q 572.4828125 92.1048828125 572.25 91.75
L 562.15 74.3
Q 561.95703125 73.9369140625 561.55 73.8 561.1548828125 73.7181640625 560.8 73.9
L 413.7 158.85
Q 413.33828125 159.091796875 413.2 159.5 413.1171875 159.8931640625 413.3 160.25
L 423.4 177.75
Q 423.640234375 178.1123046875 424.05 178.2 424.4458984375 178.333203125 424.8 178.1
L 571.9 93.1
Q 572.263671875 92.9076171875 572.35 92.5
M 601.8 28.3
Q 587.6888671875 28.3041015625 577.75 38.25 567.803515625 48.189453125 567.8 62.25 567.8041015625 76.3611328125 577.75 86.3 587.6888671875 96.2458984375 601.8 96.25 615.9111328125 96.2458984375 625.85 86.3 635.7958984375 76.3611328125 635.8 62.25 635.796484375 48.189453125 625.85 38.25 615.9111328125 28.3041015625 601.8 28.3
M 791.1 480.95
Q 791.2333984375 480.55546875 791 480.2
L 780.85 462.75
Q 780.6572265625 462.3876953125 780.25 462.25 779.855078125 462.168359375 779.5 462.35
L 632.4 547.3
Q 632.0359375 547.5421875 631.9 547.95 631.816796875 548.344921875 632 548.7
L 642.15 566.2
Q 642.3927734375 566.5626953125 642.8 566.65 643.194921875 566.7818359375 643.55 566.55
L 790.65 481.55
Q 791.0138671875 481.3578125 791.1 480.95
M 845.3 424.7
Q 835.3611328125 414.7541015625 821.25 414.75 807.1388671875 414.7541015625 797.2 424.7 787.2541015625 434.6388671875 787.25 448.75 787.2541015625 462.8611328125 797.2 472.8 807.1388671875 482.7458984375 821.25 482.75 835.3611328125 482.7458984375 845.3 472.8 855.2458984375 462.8611328125 855.25 448.75 855.2458984375 434.6388671875 845.3 424.7
M 832.05 234.85
Q 831.7607421875 234.553515625 831.35 234.55
L 812.05 234.55
Q 811.6392578125 234.553515625 811.35 234.85 811.053515625 235.1392578125 811.05 235.55
L 811.05 404.35
Q 811.053515625 404.7607421875 811.35 405.05 811.6392578125 405.346484375 812.05 405.35
L 831.35 405.35
Q 831.7607421875 405.346484375 832.05 405.05 832.346484375 404.7607421875 832.35 404.35
L 832.35 235.55
Q 832.346484375 235.1392578125 832.05 234.85
M 808.8 236.35
Q 808.71171875 235.941796875 808.35 235.7
L 792.15 226.35
Q 791.7931640625 226.1671875 791.4 226.25 790.991796875 226.38828125 790.75 226.75
L 708.8 368.7 644.4 331.55
Q 644.043359375 331.3673828125 643.65 331.45 643.2419921875 331.58828125 643 331.95
L 633.05 349.2
Q 632.8671875 349.5568359375 632.95 349.95 633.08828125 350.3580078125 633.45 350.55
L 697.8 387.7 615.55 530.25
Q 615.36640625 530.6064453125 615.45 531 615.587109375 531.40859375 615.95 531.6
L 632.15 540.9
Q 632.50625 541.1322265625 632.9 541 633.3080078125 540.911328125 633.5 540.55
L 715.8 398.05 781.8 436.15
Q 782.1548828125 436.381640625 782.55 436.25 782.95703125 436.1626953125 783.15 435.8
L 793.15 418.55
Q 793.3830078125 418.1947265625 793.25 417.8 793.1640625 417.3923828125 792.8 417.15
L 726.75 379.05 808.7 237.1
Q 808.9328125 236.7431640625 808.8 236.35
M 778.3 180.9
Q 778.296484375 180.4892578125 778 180.2 777.7107421875 179.903515625 777.3 179.9
L 612.8 179.9 612.8 105.5
Q 612.796484375 105.0892578125 612.5 104.8 612.2107421875 104.503515625 611.8 104.5
L 591.75 104.5
Q 591.3392578125 104.503515625 591.05 104.8 590.753515625 105.0892578125 590.75 105.5
L 590.75 179.9 426.85 179.9
Q 426.4392578125 179.903515625 426.15 180.2 425.853515625 180.4892578125 425.85 180.9
L 425.85 199.55
Q 425.853515625 199.9607421875 426.15 200.25 426.4392578125 200.546484375 426.85 200.55
L 590.75 200.55 590.75 276.8
Q 590.753515625 277.2107421875 591.05 277.5 591.3392578125 277.796484375 591.75 277.8
L 611.8 277.8
Q 612.2107421875 277.796484375 612.5 277.5 612.796484375 277.2107421875 612.8 276.8
L 612.8 200.55 777.3 200.55
Q 777.7107421875 200.546484375 778 200.25 778.296484375 199.9607421875 778.3 199.55
L 778.3 180.9
M 780.85 177.75
L 791 160.25
Q 791.2330078125 159.894921875 791.1 159.5 791.0140625 159.0921875 790.65 158.85
L 643.55 73.9
Q 643.194921875 73.718359375 642.8 73.8 642.3927734375 73.9376953125 642.15 74.3
L 632 91.75
Q 631.8166015625 92.10546875 631.9 92.5 632.0361328125 92.9078125 632.4 93.1
L 779.5 178.1
Q 779.855078125 178.3318359375 780.25 178.2 780.6572265625 178.1126953125 780.85 177.75
M 845.3 167.3
Q 835.3611328125 157.3541015625 821.25 157.35 807.1388671875 157.3541015625 797.2 167.3 787.2541015625 177.2388671875 787.25 191.35 787.2541015625 205.4611328125 797.2 215.4 807.1388671875 225.3458984375 821.25 225.35 835.3611328125 225.3458984375 845.3 215.4 855.2458984375 205.4611328125 855.25 191.35 855.2458984375 177.2388671875 845.3 167.3 Z"/>
</g>
</defs>

<g transform="matrix( 0.3429412841796875, 0, 0, 0.342864990234375, -119.75,-9.7) ">
<use xlink:href="#Layer0_0_FILL"/>
</g>
</svg>
